<svg width="160" height="42" viewBox="0 0 160 42" fill="none" xmlns="http://www.w3.org/2000/svg">
<path d="M8.1875 28.0938C6.85417 28.0938 5.65625 27.8333 4.59375 27.3125C3.53125 26.7708 2.66667 25.8958 2 24.6875C1.72917 24.2083 1.5 23.7083 1.3125 23.1875C1.14583 22.6458 1.0625 22.0938 1.0625 21.5312C1.0625 20.4688 1.58333 19.9375 2.625 19.9375C3.10417 19.9375 3.45833 20.0729 3.6875 20.3438C3.91667 20.5938 4.09375 20.9271 4.21875 21.3438C4.34375 21.7604 4.46875 22.2083 4.59375 22.6875C4.71875 23.1458 4.90625 23.5833 5.15625 24C5.40625 24.4167 5.77083 24.7604 6.25 25.0312C6.75 25.2812 7.41667 25.4062 8.25 25.4062C9.39583 25.4062 10.2917 25.0104 10.9375 24.2188C11.5833 23.4062 11.9062 22.4583 11.9062 21.375C11.9062 20.5 11.7083 19.7708 11.3125 19.1875C10.9375 18.6042 10.4375 18.1146 9.8125 17.7188C9.1875 17.3021 8.5 16.9271 7.75 16.5938C7 16.2604 6.23958 15.9167 5.46875 15.5625C4.71875 15.1875 4.03125 14.7604 3.40625 14.2812C2.78125 13.7812 2.27083 13.1667 1.875 12.4375C1.5 11.6875 1.3125 10.7708 1.3125 9.6875C1.3125 8.41667 1.59375 7.33333 2.15625 6.4375C2.71875 5.52083 3.47917 4.82292 4.4375 4.34375C5.41667 3.84375 6.51042 3.59375 7.71875 3.59375C8.80208 3.59375 9.85417 3.82292 10.875 4.28125C11.8958 4.71875 12.7396 5.36458 13.4062 6.21875C14.0938 7.05208 14.4375 8.0625 14.4375 9.25C14.4375 10.25 13.9375 10.75 12.9375 10.75C12.4375 10.75 12.0625 10.6042 11.8125 10.3125C11.5833 10 11.3854 9.625 11.2188 9.1875C11.0729 8.72917 10.8854 8.28125 10.6562 7.84375C10.4479 7.40625 10.1146 7.04167 9.65625 6.75C9.19792 6.4375 8.54167 6.28125 7.6875 6.28125C6.58333 6.28125 5.72917 6.55208 5.125 7.09375C4.54167 7.63542 4.25 8.46875 4.25 9.59375C4.25 10.3229 4.4375 10.9375 4.8125 11.4375C5.20833 11.9167 5.71875 12.3438 6.34375 12.7188C6.98958 13.0729 7.6875 13.4167 8.4375 13.75C9.20833 14.0625 9.96875 14.4167 10.7188 14.8125C11.4896 15.1875 12.1875 15.6562 12.8125 16.2188C13.4583 16.7604 13.9688 17.4375 14.3438 18.25C14.7396 19.0625 14.9375 20.0625 14.9375 21.25C14.9375 23.3333 14.3333 25 13.125 26.25C11.9375 27.4792 10.2917 28.0938 8.1875 28.0938ZM25.9375 27.6562C24.8542 27.6562 24.0312 27.5208 23.4688 27.25C22.9271 26.9792 22.5625 26.5417 22.375 25.9375C22.1875 25.3333 22.0938 24.5208 22.0938 23.5V13.9062H19.8125C19.3958 13.9062 19.0312 13.8229 18.7188 13.6562C18.4062 13.4688 18.25 13.1354 18.25 12.6562C18.25 12.1771 18.4062 11.8542 18.7188 11.6875C19.0312 11.5 19.3958 11.4062 19.8125 11.4062H22.0938V7.1875C22.0938 6.6875 22.1979 6.28125 22.4062 5.96875C22.6146 5.63542 22.9896 5.46875 23.5312 5.46875C24.0729 5.46875 24.4375 5.63542 24.625 5.96875C24.8333 6.30208 24.9375 6.70833 24.9375 7.1875V11.4062H27.6562C28.0729 11.4062 28.4375 11.5 28.75 11.6875C29.0625 11.8542 29.2188 12.1771 29.2188 12.6562C29.2188 13.1354 29.0625 13.4688 28.75 13.6562C28.4375 13.8229 28.0729 13.9062 27.6562 13.9062H24.9375V23.0938C24.9375 23.7396 25 24.2083 25.125 24.5C25.2708 24.7917 25.5104 24.9688 25.8438 25.0312C26.1771 25.0938 26.625 25.125 27.1875 25.125C27.6667 25.125 28.0938 25.1875 28.4688 25.3125C28.8438 25.4167 29.0312 25.7708 29.0312 26.375C29.0312 26.8333 28.8958 27.1667 28.625 27.375C28.375 27.5625 28.0417 27.6562 27.625 27.6562H25.9375ZM40 28.0938C38.2292 28.0938 36.8438 27.7083 35.8438 26.9375C34.8646 26.1458 34.1667 25.1042 33.75 23.8125C33.3542 22.5208 33.1562 21.0938 33.1562 19.5312C33.1562 17.9271 33.3646 16.4792 33.7812 15.1875C34.1979 13.8958 34.9167 12.8646 35.9375 12.0938C36.9583 11.3229 38.3542 10.9375 40.125 10.9375C41.375 10.9375 42.4271 11.1771 43.2812 11.6562C44.1354 12.1354 44.8229 12.7917 45.3438 13.625C45.8854 14.4375 46.2708 15.3542 46.5 16.375C46.7292 17.3958 46.8438 18.4583 46.8438 19.5625C46.8438 21.125 46.6354 22.5521 46.2188 23.8438C45.8229 25.1354 45.125 26.1667 44.125 26.9375C43.1458 27.7083 41.7708 28.0938 40 28.0938ZM40 25.5312C40.8333 25.5312 41.5 25.3542 42 25C42.5208 24.625 42.9167 24.1458 43.1875 23.5625C43.4583 22.9792 43.6458 22.3438 43.75 21.6562C43.8542 20.9479 43.9062 20.2604 43.9062 19.5938C43.9062 18.9271 43.8542 18.2396 43.75 17.5312C43.6667 16.8021 43.4792 16.1354 43.1875 15.5312C42.9167 14.9271 42.5208 14.4375 42 14.0625C41.5 13.6875 40.8229 13.5 39.9688 13.5C39.1146 13.5 38.4271 13.7083 37.9062 14.125C37.3854 14.5417 36.9896 15.0833 36.7188 15.75C36.4688 16.4167 36.2917 17.125 36.1875 17.875C36.1042 18.625 36.0625 19.3333 36.0625 20C36.0625 20.8958 36.1667 21.7708 36.375 22.625C36.5833 23.4583 36.9688 24.1562 37.5312 24.7188C38.0938 25.2604 38.9167 25.5312 40 25.5312ZM57.9375 27.6562C56.8542 27.6562 56.0312 27.5208 55.4688 27.25C54.9271 26.9792 54.5625 26.5417 54.375 25.9375C54.1875 25.3333 54.0938 24.5208 54.0938 23.5V13.9062H51.8125C51.3958 13.9062 51.0312 13.8229 50.7188 13.6562C50.4062 13.4688 50.25 13.1354 50.25 12.6562C50.25 12.1771 50.4062 11.8542 50.7188 11.6875C51.0312 11.5 51.3958 11.4062 51.8125 11.4062H54.0938V7.1875C54.0938 6.6875 54.1979 6.28125 54.4062 5.96875C54.6146 5.63542 54.9896 5.46875 55.5312 5.46875C56.0729 5.46875 56.4375 5.63542 56.625 5.96875C56.8333 6.30208 56.9375 6.70833 56.9375 7.1875V11.4062H59.6562C60.0729 11.4062 60.4375 11.5 60.75 11.6875C61.0625 11.8542 61.2188 12.1771 61.2188 12.6562C61.2188 13.1354 61.0625 13.4688 60.75 13.6562C60.4375 13.8229 60.0729 13.9062 59.6562 13.9062H56.9375V23.0938C56.9375 23.7396 57 24.2083 57.125 24.5C57.2708 24.7917 57.5104 24.9688 57.8438 25.0312C58.1771 25.0938 58.625 25.125 59.1875 25.125C59.6667 25.125 60.0938 25.1875 60.4688 25.3125C60.8438 25.4167 61.0312 25.7708 61.0312 26.375C61.0312 26.8333 60.8958 27.1667 60.625 27.375C60.375 27.5625 60.0417 27.6562 59.625 27.6562H57.9375ZM73.9375 27.6562C72.8542 27.6562 72.0312 27.5208 71.4688 27.25C70.9271 26.9792 70.5625 26.5417 70.375 25.9375C70.1875 25.3333 70.0938 24.5208 70.0938 23.5V13.9062H67.8125C67.3958 13.9062 67.0312 13.8229 66.7188 13.6562C66.4062 13.4688 66.25 13.1354 66.25 12.6562C66.25 12.1771 66.4062 11.8542 66.7188 11.6875C67.0312 11.5 67.3958 11.4062 67.8125 11.4062H70.0938V7.1875C70.0938 6.6875 70.1979 6.28125 70.4062 5.96875C70.6146 5.63542 70.9896 5.46875 71.5312 5.46875C72.0729 5.46875 72.4375 5.63542 72.625 5.96875C72.8333 6.30208 72.9375 6.70833 72.9375 7.1875V11.4062H75.6562C76.0729 11.4062 76.4375 11.5 76.75 11.6875C77.0625 11.8542 77.2188 12.1771 77.2188 12.6562C77.2188 13.1354 77.0625 13.4688 76.75 13.6562C76.4375 13.8229 76.0729 13.9062 75.6562 13.9062H72.9375V23.0938C72.9375 23.7396 73 24.2083 73.125 24.5C73.2708 24.7917 73.5104 24.9688 73.8438 25.0312C74.1771 25.0938 74.625 25.125 75.1875 25.125C75.6667 25.125 76.0938 25.1875 76.4688 25.3125C76.8438 25.4167 77.0312 25.7708 77.0312 26.375C77.0312 26.8333 76.8958 27.1667 76.625 27.375C76.375 27.5625 76.0417 27.6562 75.625 27.6562H73.9375ZM88.3438 28.125C86.6771 28.125 85.3229 27.7188 84.2812 26.9062C83.2396 26.0938 82.4792 25.0312 82 23.7188C81.5208 22.4062 81.2812 21.0104 81.2812 19.5312C81.2812 18.4479 81.3958 17.3958 81.625 16.375C81.875 15.3542 82.2604 14.4375 82.7812 13.625C83.3229 12.7917 84.0208 12.1354 84.875 11.6562C85.75 11.1771 86.8021 10.9375 88.0312 10.9375C89.5104 10.9375 90.7396 11.25 91.7188 11.875C92.7188 12.5 93.4688 13.3646 93.9688 14.4688C94.4688 15.5521 94.7188 16.8021 94.7188 18.2188C94.7188 19.5312 94.0417 20.1875 92.6875 20.1875H84.1875C84.1875 21.125 84.2917 22.0208 84.5 22.875C84.7083 23.7083 85.1042 24.3958 85.6875 24.9375C86.2917 25.4583 87.1458 25.7188 88.25 25.7188C89.0833 25.7188 89.7188 25.5938 90.1562 25.3438C90.6146 25.0729 90.9479 24.75 91.1562 24.375C91.3854 24 91.5729 23.625 91.7188 23.25C91.8854 22.875 92.0729 22.5625 92.2812 22.3125C92.5104 22.0417 92.8542 21.9062 93.3125 21.9062C93.7292 21.9062 94.0625 22.0104 94.3125 22.2188C94.5625 22.4271 94.6875 22.75 94.6875 23.1875C94.6875 23.8333 94.5104 24.4375 94.1562 25C93.8229 25.5417 93.4271 26.0312 92.9688 26.4688C92.3438 27.0521 91.625 27.4792 90.8125 27.75C90.0208 28 89.1979 28.125 88.3438 28.125ZM84.2812 17.7188H91.375C91.625 17.7188 91.75 17.6042 91.75 17.375C91.75 16.25 91.4271 15.3021 90.7812 14.5312C90.1354 13.7396 89.2292 13.3438 88.0625 13.3438C87.1875 13.3438 86.4792 13.5521 85.9375 13.9688C85.4167 14.3646 85.0312 14.8958 84.7812 15.5625C84.5312 16.2292 84.3646 16.9479 84.2812 17.7188ZM101.281 28.0938C100.76 28.0938 100.396 27.9271 100.188 27.5938C99.9792 27.2604 99.875 26.8542 99.875 26.375V12.6562C99.875 12.1562 99.9792 11.75 100.188 11.4375C100.396 11.1042 100.771 10.9375 101.312 10.9375C101.875 10.9375 102.25 11.0938 102.438 11.4062C102.625 11.7188 102.719 12.0938 102.719 12.5312C102.719 12.9479 102.719 13.3542 102.719 13.75C103.323 12.9792 104.01 12.3229 104.781 11.7812C105.573 11.2188 106.479 10.9375 107.5 10.9375C107.958 10.9375 108.312 11.0417 108.562 11.25C108.833 11.4583 108.969 11.8021 108.969 12.2812C108.969 12.8438 108.76 13.2292 108.344 13.4375C107.948 13.6458 107.51 13.7812 107.031 13.8438C106.406 13.9271 105.76 14.1354 105.094 14.4688C104.427 14.8021 103.865 15.2396 103.406 15.7812C102.948 16.3021 102.719 16.9271 102.719 17.6562V26.375C102.719 26.875 102.615 27.2917 102.406 27.625C102.198 27.9375 101.823 28.0938 101.281 28.0938Z" fill="black"/>
<path d="M114.156 28.0938C113.76 28.0938 113.438 28 113.188 27.8125C112.938 27.625 112.812 27.3229 112.812 26.9062C112.812 26.8646 112.812 26.7812 112.812 26.6562C112.833 26.5312 112.854 26.4583 112.875 26.4375L118.062 5.40625C118.188 4.86458 118.396 4.42708 118.688 4.09375C119 3.76042 119.448 3.59375 120.031 3.59375C120.635 3.59375 121.083 3.78125 121.375 4.15625C121.688 4.53125 121.906 4.98958 122.031 5.53125L127.156 26.4375C127.177 26.4583 127.188 26.5312 127.188 26.6562C127.208 26.7812 127.219 26.8646 127.219 26.9062C127.219 27.3229 127.094 27.625 126.844 27.8125C126.615 28 126.292 28.0938 125.875 28.0938C125.479 28.0938 125.167 27.9688 124.938 27.7188C124.708 27.4688 124.552 27.1667 124.469 26.8125L123.188 21.3125H116.875L115.562 26.8125C115.479 27.1667 115.323 27.4688 115.094 27.7188C114.865 27.9688 114.552 28.0938 114.156 28.0938ZM117.469 18.75H122.562L120.031 8L117.469 18.75ZM130.875 31.8438C130.354 31.8438 129.99 31.6667 129.781 31.3125C129.573 30.9792 129.469 30.5729 129.469 30.0938V12.375C129.469 11.4167 129.948 10.9375 130.906 10.9375C131.469 10.9375 131.844 11.0625 132.031 11.3125C132.219 11.5625 132.312 11.8854 132.312 12.2812C132.312 12.6562 132.312 13.0521 132.312 13.4688C132.854 12.6771 133.49 12.0625 134.219 11.625C134.969 11.1667 135.823 10.9375 136.781 10.9375C137.885 10.9375 138.823 11.1771 139.594 11.6562C140.365 12.1146 140.99 12.7396 141.469 13.5312C141.969 14.3229 142.323 15.1979 142.531 16.1562C142.76 17.0938 142.875 18.0312 142.875 18.9688C142.875 19.9479 142.771 20.9271 142.562 21.9062C142.375 22.8854 142.052 23.7917 141.594 24.625C141.135 25.4375 140.51 26.0938 139.719 26.5938C138.948 27.0729 137.979 27.3125 136.812 27.3125C135.854 27.3125 135 27.1042 134.25 26.6875C133.5 26.25 132.854 25.6458 132.312 24.875V30.0938C132.312 30.5729 132.208 30.9792 132 31.3125C131.792 31.6667 131.417 31.8438 130.875 31.8438ZM136.406 24.7812C137.177 24.7812 137.792 24.6042 138.25 24.25C138.729 23.875 139.083 23.3958 139.312 22.8125C139.562 22.2292 139.729 21.6042 139.812 20.9375C139.896 20.2708 139.938 19.6354 139.938 19.0312C139.938 18.4062 139.896 17.7708 139.812 17.125C139.729 16.4792 139.562 15.8854 139.312 15.3438C139.062 14.7812 138.698 14.3333 138.219 14C137.74 13.6458 137.115 13.4688 136.344 13.4688C135.656 13.4688 135 13.6771 134.375 14.0938C133.771 14.4896 133.271 15.0104 132.875 15.6562C132.5 16.3021 132.312 16.9688 132.312 17.6562V20.7812C132.312 21.4896 132.51 22.1458 132.906 22.75C133.302 23.3542 133.812 23.8438 134.438 24.2188C135.062 24.5938 135.719 24.7812 136.406 24.7812ZM146.875 31.8438C146.354 31.8438 145.99 31.6667 145.781 31.3125C145.573 30.9792 145.469 30.5729 145.469 30.0938V12.375C145.469 11.4167 145.948 10.9375 146.906 10.9375C147.469 10.9375 147.844 11.0625 148.031 11.3125C148.219 11.5625 148.312 11.8854 148.312 12.2812C148.312 12.6562 148.312 13.0521 148.312 13.4688C148.854 12.6771 149.49 12.0625 150.219 11.625C150.969 11.1667 151.823 10.9375 152.781 10.9375C153.885 10.9375 154.823 11.1771 155.594 11.6562C156.365 12.1146 156.99 12.7396 157.469 13.5312C157.969 14.3229 158.323 15.1979 158.531 16.1562C158.76 17.0938 158.875 18.0312 158.875 18.9688C158.875 19.9479 158.771 20.9271 158.562 21.9062C158.375 22.8854 158.052 23.7917 157.594 24.625C157.135 25.4375 156.51 26.0938 155.719 26.5938C154.948 27.0729 153.979 27.3125 152.812 27.3125C151.854 27.3125 151 27.1042 150.25 26.6875C149.5 26.25 148.854 25.6458 148.312 24.875V30.0938C148.312 30.5729 148.208 30.9792 148 31.3125C147.792 31.6667 147.417 31.8438 146.875 31.8438ZM152.406 24.7812C153.177 24.7812 153.792 24.6042 154.25 24.25C154.729 23.875 155.083 23.3958 155.312 22.8125C155.562 22.2292 155.729 21.6042 155.812 20.9375C155.896 20.2708 155.938 19.6354 155.938 19.0312C155.938 18.4062 155.896 17.7708 155.812 17.125C155.729 16.4792 155.562 15.8854 155.312 15.3438C155.062 14.7812 154.698 14.3333 154.219 14C153.74 13.6458 153.115 13.4688 152.344 13.4688C151.656 13.4688 151 13.6771 150.375 14.0938C149.771 14.4896 149.271 15.0104 148.875 15.6562C148.5 16.3021 148.312 16.9688 148.312 17.6562V20.7812C148.312 21.4896 148.51 22.1458 148.906 22.75C149.302 23.3542 149.812 23.8438 150.438 24.2188C151.062 24.5938 151.719 24.7812 152.406 24.7812Z" fill="#FF9838"/>
<rect x="3" y="32" width="10" height="10" fill="#FF9838"/>
<rect x="22" y="32" width="10" height="10" fill="#FF9838"/>
<rect x="41" y="32" width="10" height="10" fill="#FF9838"/>
<rect width="92" height="2" transform="matrix(1 0 0 -1 68 38)" fill="black"/>
</svg>
