<svg width="174" height="29" viewBox="0 0 174 29" fill="none" xmlns="http://www.w3.org/2000/svg">
<path d="M7.1875 25.0938C5.85417 25.0938 4.65625 24.8333 3.59375 24.3125C2.53125 23.7708 1.66667 22.8958 1 21.6875C0.729167 21.2083 0.5 20.7083 0.3125 20.1875C0.145833 19.6458 0.0625 19.0938 0.0625 18.5312C0.0625 17.4688 0.583333 16.9375 1.625 16.9375C2.10417 16.9375 2.45833 17.0729 2.6875 17.3438C2.91667 17.5938 3.09375 17.9271 3.21875 18.3438C3.34375 18.7604 3.46875 19.2083 3.59375 19.6875C3.71875 20.1458 3.90625 20.5833 4.15625 21C4.40625 21.4167 4.77083 21.7604 5.25 22.0312C5.75 22.2812 6.41667 22.4062 7.25 22.4062C8.39583 22.4062 9.29167 22.0104 9.9375 21.2188C10.5833 20.4062 10.9062 19.4583 10.9062 18.375C10.9062 17.5 10.7083 16.7708 10.3125 16.1875C9.9375 15.6042 9.4375 15.1146 8.8125 14.7188C8.1875 14.3021 7.5 13.9271 6.75 13.5938C6 13.2604 5.23958 12.9167 4.46875 12.5625C3.71875 12.1875 3.03125 11.7604 2.40625 11.2812C1.78125 10.7812 1.27083 10.1667 0.875 9.4375C0.5 8.6875 0.3125 7.77083 0.3125 6.6875C0.3125 5.41667 0.59375 4.33333 1.15625 3.4375C1.71875 2.52083 2.47917 1.82292 3.4375 1.34375C4.41667 0.84375 5.51042 0.59375 6.71875 0.59375C7.80208 0.59375 8.85417 0.822917 9.875 1.28125C10.8958 1.71875 11.7396 2.36458 12.4062 3.21875C13.0938 4.05208 13.4375 5.0625 13.4375 6.25C13.4375 7.25 12.9375 7.75 11.9375 7.75C11.4375 7.75 11.0625 7.60417 10.8125 7.3125C10.5833 7 10.3854 6.625 10.2188 6.1875C10.0729 5.72917 9.88542 5.28125 9.65625 4.84375C9.44792 4.40625 9.11458 4.04167 8.65625 3.75C8.19792 3.4375 7.54167 3.28125 6.6875 3.28125C5.58333 3.28125 4.72917 3.55208 4.125 4.09375C3.54167 4.63542 3.25 5.46875 3.25 6.59375C3.25 7.32292 3.4375 7.9375 3.8125 8.4375C4.20833 8.91667 4.71875 9.34375 5.34375 9.71875C5.98958 10.0729 6.6875 10.4167 7.4375 10.75C8.20833 11.0625 8.96875 11.4167 9.71875 11.8125C10.4896 12.1875 11.1875 12.6562 11.8125 13.2188C12.4583 13.7604 12.9688 14.4375 13.3438 15.25C13.7396 16.0625 13.9375 17.0625 13.9375 18.25C13.9375 20.3333 13.3333 22 12.125 23.25C10.9375 24.4792 9.29167 25.0938 7.1875 25.0938ZM24.9375 24.6562C23.8542 24.6562 23.0312 24.5208 22.4688 24.25C21.9271 23.9792 21.5625 23.5417 21.375 22.9375C21.1875 22.3333 21.0938 21.5208 21.0938 20.5V10.9062H18.8125C18.3958 10.9062 18.0312 10.8229 17.7188 10.6562C17.4062 10.4688 17.25 10.1354 17.25 9.65625C17.25 9.17708 17.4062 8.85417 17.7188 8.6875C18.0312 8.5 18.3958 8.40625 18.8125 8.40625H21.0938V4.1875C21.0938 3.6875 21.1979 3.28125 21.4062 2.96875C21.6146 2.63542 21.9896 2.46875 22.5312 2.46875C23.0729 2.46875 23.4375 2.63542 23.625 2.96875C23.8333 3.30208 23.9375 3.70833 23.9375 4.1875V8.40625H26.6562C27.0729 8.40625 27.4375 8.5 27.75 8.6875C28.0625 8.85417 28.2188 9.17708 28.2188 9.65625C28.2188 10.1354 28.0625 10.4688 27.75 10.6562C27.4375 10.8229 27.0729 10.9062 26.6562 10.9062H23.9375V20.0938C23.9375 20.7396 24 21.2083 24.125 21.5C24.2708 21.7917 24.5104 21.9688 24.8438 22.0312C25.1771 22.0938 25.625 22.125 26.1875 22.125C26.6667 22.125 27.0938 22.1875 27.4688 22.3125C27.8438 22.4167 28.0312 22.7708 28.0312 23.375C28.0312 23.8333 27.8958 24.1667 27.625 24.375C27.375 24.5625 27.0417 24.6562 26.625 24.6562H24.9375ZM39 25.0938C37.2292 25.0938 35.8438 24.7083 34.8438 23.9375C33.8646 23.1458 33.1667 22.1042 32.75 20.8125C32.3542 19.5208 32.1562 18.0938 32.1562 16.5312C32.1562 14.9271 32.3646 13.4792 32.7812 12.1875C33.1979 10.8958 33.9167 9.86458 34.9375 9.09375C35.9583 8.32292 37.3542 7.9375 39.125 7.9375C40.375 7.9375 41.4271 8.17708 42.2812 8.65625C43.1354 9.13542 43.8229 9.79167 44.3438 10.625C44.8854 11.4375 45.2708 12.3542 45.5 13.375C45.7292 14.3958 45.8438 15.4583 45.8438 16.5625C45.8438 18.125 45.6354 19.5521 45.2188 20.8438C44.8229 22.1354 44.125 23.1667 43.125 23.9375C42.1458 24.7083 40.7708 25.0938 39 25.0938ZM39 22.5312C39.8333 22.5312 40.5 22.3542 41 22C41.5208 21.625 41.9167 21.1458 42.1875 20.5625C42.4583 19.9792 42.6458 19.3438 42.75 18.6562C42.8542 17.9479 42.9062 17.2604 42.9062 16.5938C42.9062 15.9271 42.8542 15.2396 42.75 14.5312C42.6667 13.8021 42.4792 13.1354 42.1875 12.5312C41.9167 11.9271 41.5208 11.4375 41 11.0625C40.5 10.6875 39.8229 10.5 38.9688 10.5C38.1146 10.5 37.4271 10.7083 36.9062 11.125C36.3854 11.5417 35.9896 12.0833 35.7188 12.75C35.4688 13.4167 35.2917 14.125 35.1875 14.875C35.1042 15.625 35.0625 16.3333 35.0625 17C35.0625 17.8958 35.1667 18.7708 35.375 19.625C35.5833 20.4583 35.9688 21.1562 36.5312 21.7188C37.0938 22.2604 37.9167 22.5312 39 22.5312ZM56.9375 24.6562C55.8542 24.6562 55.0312 24.5208 54.4688 24.25C53.9271 23.9792 53.5625 23.5417 53.375 22.9375C53.1875 22.3333 53.0938 21.5208 53.0938 20.5V10.9062H50.8125C50.3958 10.9062 50.0312 10.8229 49.7188 10.6562C49.4062 10.4688 49.25 10.1354 49.25 9.65625C49.25 9.17708 49.4062 8.85417 49.7188 8.6875C50.0312 8.5 50.3958 8.40625 50.8125 8.40625H53.0938V4.1875C53.0938 3.6875 53.1979 3.28125 53.4062 2.96875C53.6146 2.63542 53.9896 2.46875 54.5312 2.46875C55.0729 2.46875 55.4375 2.63542 55.625 2.96875C55.8333 3.30208 55.9375 3.70833 55.9375 4.1875V8.40625H58.6562C59.0729 8.40625 59.4375 8.5 59.75 8.6875C60.0625 8.85417 60.2188 9.17708 60.2188 9.65625C60.2188 10.1354 60.0625 10.4688 59.75 10.6562C59.4375 10.8229 59.0729 10.9062 58.6562 10.9062H55.9375V20.0938C55.9375 20.7396 56 21.2083 56.125 21.5C56.2708 21.7917 56.5104 21.9688 56.8438 22.0312C57.1771 22.0938 57.625 22.125 58.1875 22.125C58.6667 22.125 59.0938 22.1875 59.4688 22.3125C59.8438 22.4167 60.0312 22.7708 60.0312 23.375C60.0312 23.8333 59.8958 24.1667 59.625 24.375C59.375 24.5625 59.0417 24.6562 58.625 24.6562H56.9375ZM72.9375 24.6562C71.8542 24.6562 71.0312 24.5208 70.4688 24.25C69.9271 23.9792 69.5625 23.5417 69.375 22.9375C69.1875 22.3333 69.0938 21.5208 69.0938 20.5V10.9062H66.8125C66.3958 10.9062 66.0312 10.8229 65.7188 10.6562C65.4062 10.4688 65.25 10.1354 65.25 9.65625C65.25 9.17708 65.4062 8.85417 65.7188 8.6875C66.0312 8.5 66.3958 8.40625 66.8125 8.40625H69.0938V4.1875C69.0938 3.6875 69.1979 3.28125 69.4062 2.96875C69.6146 2.63542 69.9896 2.46875 70.5312 2.46875C71.0729 2.46875 71.4375 2.63542 71.625 2.96875C71.8333 3.30208 71.9375 3.70833 71.9375 4.1875V8.40625H74.6562C75.0729 8.40625 75.4375 8.5 75.75 8.6875C76.0625 8.85417 76.2188 9.17708 76.2188 9.65625C76.2188 10.1354 76.0625 10.4688 75.75 10.6562C75.4375 10.8229 75.0729 10.9062 74.6562 10.9062H71.9375V20.0938C71.9375 20.7396 72 21.2083 72.125 21.5C72.2708 21.7917 72.5104 21.9688 72.8438 22.0312C73.1771 22.0938 73.625 22.125 74.1875 22.125C74.6667 22.125 75.0938 22.1875 75.4688 22.3125C75.8438 22.4167 76.0312 22.7708 76.0312 23.375C76.0312 23.8333 75.8958 24.1667 75.625 24.375C75.375 24.5625 75.0417 24.6562 74.625 24.6562H72.9375ZM87.3438 25.125C85.6771 25.125 84.3229 24.7188 83.2812 23.9062C82.2396 23.0938 81.4792 22.0312 81 20.7188C80.5208 19.4062 80.2812 18.0104 80.2812 16.5312C80.2812 15.4479 80.3958 14.3958 80.625 13.375C80.875 12.3542 81.2604 11.4375 81.7812 10.625C82.3229 9.79167 83.0208 9.13542 83.875 8.65625C84.75 8.17708 85.8021 7.9375 87.0312 7.9375C88.5104 7.9375 89.7396 8.25 90.7188 8.875C91.7188 9.5 92.4688 10.3646 92.9688 11.4688C93.4688 12.5521 93.7188 13.8021 93.7188 15.2188C93.7188 16.5312 93.0417 17.1875 91.6875 17.1875H83.1875C83.1875 18.125 83.2917 19.0208 83.5 19.875C83.7083 20.7083 84.1042 21.3958 84.6875 21.9375C85.2917 22.4583 86.1458 22.7188 87.25 22.7188C88.0833 22.7188 88.7188 22.5938 89.1562 22.3438C89.6146 22.0729 89.9479 21.75 90.1562 21.375C90.3854 21 90.5729 20.625 90.7188 20.25C90.8854 19.875 91.0729 19.5625 91.2812 19.3125C91.5104 19.0417 91.8542 18.9062 92.3125 18.9062C92.7292 18.9062 93.0625 19.0104 93.3125 19.2188C93.5625 19.4271 93.6875 19.75 93.6875 20.1875C93.6875 20.8333 93.5104 21.4375 93.1562 22C92.8229 22.5417 92.4271 23.0312 91.9688 23.4688C91.3438 24.0521 90.625 24.4792 89.8125 24.75C89.0208 25 88.1979 25.125 87.3438 25.125ZM83.2812 14.7188H90.375C90.625 14.7188 90.75 14.6042 90.75 14.375C90.75 13.25 90.4271 12.3021 89.7812 11.5312C89.1354 10.7396 88.2292 10.3438 87.0625 10.3438C86.1875 10.3438 85.4792 10.5521 84.9375 10.9688C84.4167 11.3646 84.0312 11.8958 83.7812 12.5625C83.5312 13.2292 83.3646 13.9479 83.2812 14.7188ZM100.281 25.0938C99.7604 25.0938 99.3958 24.9271 99.1875 24.5938C98.9792 24.2604 98.875 23.8542 98.875 23.375V9.65625C98.875 9.15625 98.9792 8.75 99.1875 8.4375C99.3958 8.10417 99.7708 7.9375 100.312 7.9375C100.875 7.9375 101.25 8.09375 101.438 8.40625C101.625 8.71875 101.719 9.09375 101.719 9.53125C101.719 9.94792 101.719 10.3542 101.719 10.75C102.323 9.97917 103.01 9.32292 103.781 8.78125C104.573 8.21875 105.479 7.9375 106.5 7.9375C106.958 7.9375 107.312 8.04167 107.562 8.25C107.833 8.45833 107.969 8.80208 107.969 9.28125C107.969 9.84375 107.76 10.2292 107.344 10.4375C106.948 10.6458 106.51 10.7812 106.031 10.8438C105.406 10.9271 104.76 11.1354 104.094 11.4688C103.427 11.8021 102.865 12.2396 102.406 12.7812C101.948 13.3021 101.719 13.9271 101.719 14.6562V23.375C101.719 23.875 101.615 24.2917 101.406 24.625C101.198 24.9375 100.823 25.0938 100.281 25.0938ZM129.156 25.0938C128.76 25.0938 128.438 25 128.188 24.8125C127.938 24.625 127.812 24.3229 127.812 23.9062C127.812 23.8646 127.812 23.7812 127.812 23.6562C127.833 23.5312 127.854 23.4583 127.875 23.4375L133.062 2.40625C133.188 1.86458 133.396 1.42708 133.688 1.09375C134 0.760417 134.448 0.59375 135.031 0.59375C135.635 0.59375 136.083 0.78125 136.375 1.15625C136.688 1.53125 136.906 1.98958 137.031 2.53125L142.156 23.4375C142.177 23.4583 142.188 23.5312 142.188 23.6562C142.208 23.7812 142.219 23.8646 142.219 23.9062C142.219 24.3229 142.094 24.625 141.844 24.8125C141.615 25 141.292 25.0938 140.875 25.0938C140.479 25.0938 140.167 24.9688 139.938 24.7188C139.708 24.4688 139.552 24.1667 139.469 23.8125L138.188 18.3125H131.875L130.562 23.8125C130.479 24.1667 130.323 24.4688 130.094 24.7188C129.865 24.9688 129.552 25.0938 129.156 25.0938ZM132.469 15.75H137.562L135.031 5L132.469 15.75ZM145.875 28.8438C145.354 28.8438 144.99 28.6667 144.781 28.3125C144.573 27.9792 144.469 27.5729 144.469 27.0938V9.375C144.469 8.41667 144.948 7.9375 145.906 7.9375C146.469 7.9375 146.844 8.0625 147.031 8.3125C147.219 8.5625 147.312 8.88542 147.312 9.28125C147.312 9.65625 147.312 10.0521 147.312 10.4688C147.854 9.67708 148.49 9.0625 149.219 8.625C149.969 8.16667 150.823 7.9375 151.781 7.9375C152.885 7.9375 153.823 8.17708 154.594 8.65625C155.365 9.11458 155.99 9.73958 156.469 10.5312C156.969 11.3229 157.323 12.1979 157.531 13.1562C157.76 14.0938 157.875 15.0312 157.875 15.9688C157.875 16.9479 157.771 17.9271 157.562 18.9062C157.375 19.8854 157.052 20.7917 156.594 21.625C156.135 22.4375 155.51 23.0938 154.719 23.5938C153.948 24.0729 152.979 24.3125 151.812 24.3125C150.854 24.3125 150 24.1042 149.25 23.6875C148.5 23.25 147.854 22.6458 147.312 21.875V27.0938C147.312 27.5729 147.208 27.9792 147 28.3125C146.792 28.6667 146.417 28.8438 145.875 28.8438ZM151.406 21.7812C152.177 21.7812 152.792 21.6042 153.25 21.25C153.729 20.875 154.083 20.3958 154.312 19.8125C154.562 19.2292 154.729 18.6042 154.812 17.9375C154.896 17.2708 154.938 16.6354 154.938 16.0312C154.938 15.4062 154.896 14.7708 154.812 14.125C154.729 13.4792 154.562 12.8854 154.312 12.3438C154.062 11.7812 153.698 11.3333 153.219 11C152.74 10.6458 152.115 10.4688 151.344 10.4688C150.656 10.4688 150 10.6771 149.375 11.0938C148.771 11.4896 148.271 12.0104 147.875 12.6562C147.5 13.3021 147.312 13.9688 147.312 14.6562V17.7812C147.312 18.4896 147.51 19.1458 147.906 19.75C148.302 20.3542 148.812 20.8438 149.438 21.2188C150.062 21.5938 150.719 21.7812 151.406 21.7812ZM161.875 28.8438C161.354 28.8438 160.99 28.6667 160.781 28.3125C160.573 27.9792 160.469 27.5729 160.469 27.0938V9.375C160.469 8.41667 160.948 7.9375 161.906 7.9375C162.469 7.9375 162.844 8.0625 163.031 8.3125C163.219 8.5625 163.312 8.88542 163.312 9.28125C163.312 9.65625 163.312 10.0521 163.312 10.4688C163.854 9.67708 164.49 9.0625 165.219 8.625C165.969 8.16667 166.823 7.9375 167.781 7.9375C168.885 7.9375 169.823 8.17708 170.594 8.65625C171.365 9.11458 171.99 9.73958 172.469 10.5312C172.969 11.3229 173.323 12.1979 173.531 13.1562C173.76 14.0938 173.875 15.0312 173.875 15.9688C173.875 16.9479 173.771 17.9271 173.562 18.9062C173.375 19.8854 173.052 20.7917 172.594 21.625C172.135 22.4375 171.51 23.0938 170.719 23.5938C169.948 24.0729 168.979 24.3125 167.812 24.3125C166.854 24.3125 166 24.1042 165.25 23.6875C164.5 23.25 163.854 22.6458 163.312 21.875V27.0938C163.312 27.5729 163.208 27.9792 163 28.3125C162.792 28.6667 162.417 28.8438 161.875 28.8438ZM167.406 21.7812C168.177 21.7812 168.792 21.6042 169.25 21.25C169.729 20.875 170.083 20.3958 170.312 19.8125C170.562 19.2292 170.729 18.6042 170.812 17.9375C170.896 17.2708 170.938 16.6354 170.938 16.0312C170.938 15.4062 170.896 14.7708 170.812 14.125C170.729 13.4792 170.562 12.8854 170.312 12.3438C170.062 11.7812 169.698 11.3333 169.219 11C168.74 10.6458 168.115 10.4688 167.344 10.4688C166.656 10.4688 166 10.6771 165.375 11.0938C164.771 11.4896 164.271 12.0104 163.875 12.6562C163.5 13.3021 163.312 13.9688 163.312 14.6562V17.7812C163.312 18.4896 163.51 19.1458 163.906 19.75C164.302 20.3542 164.812 20.8438 165.438 21.2188C166.062 21.5938 166.719 21.7812 167.406 21.7812Z" fill="black"/>
</svg>
